<svg xmlns="http://www.w3.org/2000/svg" width="326.4" height="35.7" viewBox="0 0 326.4 35.7">
	<defs>
		<style>
			.b{fill:#fff}
		</style>
	</defs>
	<g style="isolation:isolate">
		<path class="b" d="M39.86 20.98v-13h3.21v12.66a14.79 14.79 0 0 1-.23 3.08 5.37 5.37 0 0 1-3.67 3.69l-1.47-1.63a4.49 4.49 0 0 0 1.85-1.94 8.43 8.43 0 0 0 .31-2.86z"/>
		<path class="b" d="M46.07 23.7V8h8.54l-.36 2.56h-5v3.6h4v2.58h-4v7z"/>
		<path class="b" d="M56.17 15.95a10.12 10.12 0 0 0-.43-3.4l2.72-.71a3.91 3.91 0 0 1 .48 1.65 4.55 4.55 0 0 1 1.72-1.47 2.36 2.36 0 0 1 1-.18 2.9 2.9 0 0 1 1.13.25l-.84 2.67a1.88 1.88 0 0 0-.88-.23 2.43 2.43 0 0 0-1.86 1v8.2h-3z"/>
		<path class="b" d="M62.9 17.94a6.53 6.53 0 0 1 1.43-4.4 4.73 4.73 0 0 1 3.74-1.7 4.9 4.9 0 0 1 4 1.78 6.3 6.3 0 0 1 1.31 4.22 6.5 6.5 0 0 1-1.44 4.47 4.88 4.88 0 0 1-3.87 1.64 4.78 4.78 0 0 1-3.78-1.63 6.4 6.4 0 0 1-1.39-4.38zm6.57-3.22a1.57 1.57 0 0 0-1.31-.61 1.55 1.55 0 0 0-1.56 1.18 8.31 8.31 0 0 0-.33 2.55 8 8 0 0 0 .4 3 1.5 1.5 0 0 0 1.53.93q1.87-.02 1.87-3.93a5.46 5.46 0 0 0-.61-3.11z"/>
		<path class="b" d="M83.35 12.44a3.53 3.53 0 0 0 2.4-1l1.27 1.92a3 3 0 0 1-2.13.86q-.2 0-.79-.07a2.88 2.88 0 0 1 .68 1.9 3 3 0 0 1-1.21 2.47 4.74 4.74 0 0 1-3.07 1h-.45q-1.2.58-1.2 1c0 .19.17.28.5.28h1.62a5.1 5.1 0 0 1 3.51 1 3.21 3.21 0 0 1 1 2.47 3.4 3.4 0 0 1-.93 2.4q-1.4 1.49-4.58 1.49t-4.39-1.32a2.73 2.73 0 0 1-1-2.06 2.6 2.6 0 0 1 .27-1.18h2.81a2.23 2.23 0 0 0-.14.75q.05 1.49 2.23 1.49a3.65 3.65 0 0 0 1.92-.38 1.39 1.39 0 0 0 .72-1.18 1.08 1.08 0 0 0-.54-1 3.77 3.77 0 0 0-1.58-.44h-1.29a14.87 14.87 0 0 1-1.91-.09 2.21 2.21 0 0 1-1.59-.82 2.1 2.1 0 0 1-.23-1 1.54 1.54 0 0 1 .36-1.06 3.46 3.46 0 0 1 1.77-.88 3 3 0 0 1-2.44-3.15 3.46 3.46 0 0 1 1.34-2.85 5.54 5.54 0 0 1 3.56-1.06 8.51 8.51 0 0 1 2.08.29 6.5 6.5 0 0 0 1.43.22zm-1.7 3.4q0-1.72-1.83-1.72T78 15.84q0 1.65 1.79 1.65t1.86-1.65z"/>
		<path class="b" d="M93.74 23.7l5.17-15.79h3.42l5 15.79h-3.4l-1.11-3.74h-4.66l-1.09 3.74zm6-9.29q-.41 1.61-.84 2.92h3.08q-.27-.82-.86-3.17l-.63-2.79z"/>
		<path class="b" d="M108.51 15.95a10.12 10.12 0 0 0-.43-3.4l2.72-.72a3.91 3.91 0 0 1 .48 1.65 4.55 4.55 0 0 1 1.72-1.47 2.36 2.36 0 0 1 1-.18 2.9 2.9 0 0 1 1.13.25l-.84 2.67a1.88 1.88 0 0 0-.88-.23 2.43 2.43 0 0 0-1.86 1v8.2h-3z"/>
		<path class="b" d="M119.15 12.08h2.72l-.77 2h-1.95v5.91a2.76 2.76 0 0 0 .27 1.48 1.22 1.22 0 0 0 1 .37 4.55 4.55 0 0 0 1.09-.23l.38 1.81a6.47 6.47 0 0 1-2.47.52 4.12 4.12 0 0 1-2-.46 2.27 2.27 0 0 1-1.12-1.23 5.84 5.84 0 0 1-.2-1.79v-6.37h-1.16v-2h1.16a23.61 23.61 0 0 1 .11-2.76l3.08-.77a32.87 32.87 0 0 0-.14 3.52z"/>
		<path class="b" d="M122.46 8.91a1.81 1.81 0 0 1 .55-1.32 1.83 1.83 0 0 1 1.35-.55 1.75 1.75 0 0 1 1.3.54 1.92 1.92 0 0 1 0 2.66 1.8 1.8 0 0 1-1.34.55 1.77 1.77 0 0 1-1.31-.55 1.83 1.83 0 0 1-.55-1.33zm.34 14.79V12.3l3-.48V23.7z"/>
		<path class="b" d="M135.14 7.64l-1 1.88a3.13 3.13 0 0 0-1.25-.38q-1.27 0-1.27 1.31v1.63h2.94l-.78 2.13h-2.17v9.49h-3v-9.49h-1v-2.13h1.11a11 11 0 0 1-.11-1.56 3.52 3.52 0 0 1 1-2.66 3.82 3.82 0 0 1 2.76-.94 5.51 5.51 0 0 1 2.77.72z"/>
		<path class="b" d="M135.87 15.66l-1.29-2.17a11.47 11.47 0 0 1 1.88-1 8.45 8.45 0 0 1 3.17-.68q3 0 3.74 2a6.64 6.64 0 0 1 .2 2.08l-.07 3.9v.2a3.85 3.85 0 0 0 .18 1.36 2.65 2.65 0 0 0 .91 1l-1.61 1.86a3 3 0 0 1-1.63-1.4 7.14 7.14 0 0 1-.7.61 3.92 3.92 0 0 1-2.33.63 4.24 4.24 0 0 1-3-.94 3.45 3.45 0 0 1-1-2.68q0-4 5.57-4h.68v-.48a2.41 2.41 0 0 0-.27-1.36 1.3 1.3 0 0 0-1.09-.36 6.34 6.34 0 0 0-3.34 1.43zm4.62 5.46v-2.49h-.14a4.62 4.62 0 0 0-2.22.37 1.5 1.5 0 0 0-.61 1.39 1.59 1.59 0 0 0 .37 1.1 1.23 1.23 0 0 0 1 .42 2.13 2.13 0 0 0 1.6-.8z"/>
		<path class="b" d="M153.22 12.28a5.93 5.93 0 0 1 1.13.82l-1.47 2a2.81 2.81 0 0 0-1.83-.91q-2 0-2 3.9a5 5 0 0 0 .59 2.92 1.65 1.65 0 0 0 1.36.66 3.24 3.24 0 0 0 2.08-1l.18-.16 1.38 1.83a5.53 5.53 0 0 1-1.06.86 5.45 5.45 0 0 1-2.83.72 4.6 4.6 0 0 1-3.68-1.53 6.64 6.64 0 0 1-1.33-4.41q0-3.76 2.38-5.37a5 5 0 0 1 2.88-.86 5 5 0 0 1 2.22.53z"/>
		<path class="b" d="M159.17 12.08h2.72l-.77 2h-1.95v5.91a2.75 2.75 0 0 0 .27 1.48 1.22 1.22 0 0 0 1 .37 4.53 4.53 0 0 0 1.09-.23l.38 1.81a6.46 6.46 0 0 1-2.47.52 4.12 4.12 0 0 1-2-.46 2.27 2.27 0 0 1-1.12-1.23 5.83 5.83 0 0 1-.2-1.79v-6.37h-1.16v-2h1.16a23.73 23.73 0 0 1 .11-2.76l3.08-.77a32.77 32.77 0 0 0-.14 3.52z"/>
		<path class="b" d="M162.14 17.94a6.54 6.54 0 0 1 1.43-4.4 4.73 4.73 0 0 1 3.78-1.7 4.9 4.9 0 0 1 3.94 1.74 6.3 6.3 0 0 1 1.33 4.26 6.5 6.5 0 0 1-1.44 4.47 4.88 4.88 0 0 1-3.84 1.62 4.78 4.78 0 0 1-3.78-1.63 6.4 6.4 0 0 1-1.42-4.36zm6.57-3.22a1.57 1.57 0 0 0-1.31-.61 1.55 1.55 0 0 0-1.56 1.18 8.3 8.3 0 0 0-.32 2.58 8 8 0 0 0 .4 2.94 1.5 1.5 0 0 0 1.53.93q1.88 0 1.88-3.92a5.46 5.46 0 0 0-.62-3.09z"/>
		<path class="b" d="M174.8 15.95a10.14 10.14 0 0 0-.43-3.4l2.7-.71a3.91 3.91 0 0 1 .48 1.65 4.54 4.54 0 0 1 1.72-1.47 2.36 2.36 0 0 1 1-.18 2.9 2.9 0 0 1 1.13.25l-.84 2.67a1.88 1.88 0 0 0-.88-.23 2.43 2.43 0 0 0-1.86 1v8.2h-3z"/>
		<path class="b" d="M183.68 20.43l-2.74-8.13 3.1-.36 2 6.75q.2.66.61 2.4.11-.66.36-1.86.2-.79.45-1.61l1.74-5.5h3.19l-4.18 11.72q-1.06 3-2.22 3.84a5.86 5.86 0 0 1-2.81 1.05l-1-2a6.23 6.23 0 0 0 1.88-.77 3.32 3.32 0 0 0 .86-1 8.2 8.2 0 0 0 .66-1.36h-.77l-.24-.67q-.15-.4-.24-.69z"/>
		<path class="b" d="M207.55 7.62a5.87 5.87 0 0 1 4 1.25l-1.48 2.14a4.11 4.11 0 0 0-2.51-.88 3 3 0 0 0-2.65 1.34 7.35 7.35 0 0 0-.84 4.07 9.52 9.52 0 0 0 .66 4.21 3.23 3.23 0 0 0 3 1.77 4.23 4.23 0 0 0 2.7-1l1.45 2a6.66 6.66 0 0 1-4.37 1.47 6.51 6.51 0 0 1-5.14-2.15 8.21 8.21 0 0 1-1.91-5.65 10.28 10.28 0 0 1 1.06-4.89 6.73 6.73 0 0 1 6-3.65z"/>
		<path class="b" d="M213.41 23.7V7.96h9l-.41 2.58h-5.39v3.65h4.46v2.58h-4.46v4.21h6v2.72z"/>
		<path class="b" d="M238.73 7.64l-1 1.88a3.13 3.13 0 0 0-1.25-.38 1.14 1.14 0 0 0-1.27 1.31v1.63h2.94l-.78 2.13h-2.17v9.49h-3v-9.49h-1v-2.13h1.11a10.93 10.93 0 0 1-.11-1.56 3.53 3.53 0 0 1 1-2.66 3.82 3.82 0 0 1 2.76-.94 5.51 5.51 0 0 1 2.77.72z"/>
		<path class="b" d="M237.83 17.94a6.54 6.54 0 0 1 1.43-4.4 4.73 4.73 0 0 1 3.81-1.7 4.9 4.9 0 0 1 3.94 1.74 6.3 6.3 0 0 1 1.3 4.26 6.5 6.5 0 0 1-1.44 4.47 4.88 4.88 0 0 1-3.8 1.64 4.78 4.78 0 0 1-3.78-1.63 6.4 6.4 0 0 1-1.46-4.38zm6.57-3.22a1.57 1.57 0 0 0-1.31-.61 1.55 1.55 0 0 0-1.56 1.18 8.3 8.3 0 0 0-.32 2.58 8 8 0 0 0 .4 2.94 1.5 1.5 0 0 0 1.53.93q1.88 0 1.88-3.92a5.46 5.46 0 0 0-.62-3.09z"/>
		<path class="b" d="M250.49 15.95a10.14 10.14 0 0 0-.43-3.4l2.71-.71a3.91 3.91 0 0 1 .48 1.65 4.54 4.54 0 0 1 1.72-1.47 2.36 2.36 0 0 1 1-.18 2.9 2.9 0 0 1 1.13.25l-.84 2.67a1.88 1.88 0 0 0-.88-.23 2.43 2.43 0 0 0-1.86 1v8.2h-3z"/>
		<path class="b" d="M271.91 7.62a5.87 5.87 0 0 1 4 1.25l-1.43 2.15a4.11 4.11 0 0 0-2.51-.88 3 3 0 0 0-2.65 1.34 7.35 7.35 0 0 0-.91 4.08 9.52 9.52 0 0 0 .66 4.21 3.23 3.23 0 0 0 3 1.77 4.23 4.23 0 0 0 2.7-1l1.45 2a6.66 6.66 0 0 1-4.37 1.47 6.51 6.51 0 0 1-5.11-2.17 8.21 8.21 0 0 1-1.91-5.65 10.28 10.28 0 0 1 1.06-4.89 6.73 6.73 0 0 1 6-3.65z"/>
		<path class="b" d="M285.52 24.1l-2.56.79-6.79-17.64 2.58-.79z"/>
		<path class="b" d="M293.25 7.62a5.87 5.87 0 0 1 4 1.25l-1.43 2.15a4.11 4.11 0 0 0-2.51-.88 3 3 0 0 0-2.65 1.34 7.35 7.35 0 0 0-.91 4.08 9.52 9.52 0 0 0 .66 4.21 3.23 3.23 0 0 0 3 1.77 4.23 4.23 0 0 0 2.7-1l1.45 2a6.66 6.66 0 0 1-4.37 1.47 6.51 6.51 0 0 1-5.12-2.17 8.21 8.21 0 0 1-1.91-5.65 10.28 10.28 0 0 1 1.06-4.89 6.73 6.73 0 0 1 6-3.65z"/>
		<path class="b" d="M298.91 18.26v-2.85h4.78v-4.78h2.85v4.78h4.78v2.85h-4.78v4.78h-2.85v-4.78z"/>
		<path class="b" d="M313.99 18.26v-2.85h4.78v-4.78h2.85v4.78h4.78v2.85h-4.78v4.78h-2.85v-4.78z"/>
	</g>
	<path class="b" d="M13.84 27.69a13.84 13.84 0 1 1 13.85-13.85 13.84 13.84 0 0 1-13.85 13.85zm0-25.2a11.37 11.37 0 1 0 11.35 11.35A11.39 11.39 0 0 0 13.84 2.49z"/>
	<path class="b" d="M.19 33.25h27.48v2.45H.19z"/>
</svg>